<svg xmlns="http://www.w3.org/2000/svg" xmlns:xlink="http://www.w3.org/1999/xlink" width="39" height="40" viewBox="0 0 39 40">
  <defs>
    <clipPath id="clip-path">
      <rect id="Rectangle_27" data-name="Rectangle 27" width="25.002" height="15.219" fill="none"/>
    </clipPath>
  </defs>
  <g id="Group_137" data-name="Group 137" transform="translate(-1480 -685)">
    <rect id="joel-jasmin-forestbird-znoL1m6MD_k-unsplash" width="39" height="40" rx="19.5" transform="translate(1480 685)" fill="rgba(8,26,24,0.11)"/>
    <g id="Group_122" data-name="Group 122" transform="translate(1486.999 694.567)">
      <g id="Group_121" data-name="Group 121" clip-path="url(#clip-path)">
        <path id="Path_367" data-name="Path 367" d="M239.453,48.927,236.877,51.5a8.825,8.825,0,0,1,2.339,5.991h3.642a12.456,12.456,0,0,0-3.4-8.566" transform="translate(-217.856 -44.998)" fill="#3c3b3c"/>
        <path id="Path_368" data-name="Path 368" d="M57.194,0A12.456,12.456,0,0,0,49,3.4l2.576,2.576a8.825,8.825,0,0,1,5.616-2.33Z" transform="translate(-45.068)" fill="#3c3b3c"/>
        <path id="Path_369" data-name="Path 369" d="M160.344,0V3.644a8.825,8.825,0,0,1,5.616,2.33L168.535,3.4A12.455,12.455,0,0,0,160.344,0" transform="translate(-147.468)" fill="#3c3b3c"/>
        <path id="Path_370" data-name="Path 370" d="M3.405,48.926A12.455,12.455,0,0,0,0,57.492H3.642A8.825,8.825,0,0,1,5.981,51.5Z" transform="translate(0 -44.997)" fill="#3c3b3c"/>
        <path id="Path_371" data-name="Path 371" d="M125.674,87.218a2.505,2.505,0,1,1-4.27-2.535c.607-1.023,3.762-3.536,5.248-4.689a.38.38,0,0,1,.625.371c-.3,1.857-1,5.83-1.6,6.853" transform="translate(-111.246 -73.482)" fill="#3c3b3c"/>
      </g>
    </g>
  </g>
</svg>
