<svg xmlns="http://www.w3.org/2000/svg" width="39" height="40" viewBox="0 0 39 40">
  <g id="Group_139" data-name="Group 139" transform="translate(-1074 -685)">
    <rect id="joel-jasmin-forestbird-znoL1m6MD_k-unsplash" width="39" height="40" rx="19.5" transform="translate(1074 685)" fill="rgba(8,26,24,0.11)"/>
    <path id="Path_372" data-name="Path 372" d="M14.742-5.226a4.954,4.954,0,0,1-.689,2.535,5.363,5.363,0,0,1-2.028,1.95,7.325,7.325,0,0,1-3.159.9V2.262H7.2V.13A7.335,7.335,0,0,1,3.016-1.443,4.648,4.648,0,0,1,1.378-5.07h3.9A2.288,2.288,0,0,0,7.2-2.808V-7.774A22.855,22.855,0,0,1,4.186-8.71,4.876,4.876,0,0,1,2.21-10.218a4.414,4.414,0,0,1-.832-2.834A4.691,4.691,0,0,1,3-16.744a7.018,7.018,0,0,1,4.2-1.638v-2.106H8.866v2.106a6.763,6.763,0,0,1,3.991,1.508,5.071,5.071,0,0,1,1.677,3.588H10.608a2.428,2.428,0,0,0-.533-1.313,2.452,2.452,0,0,0-1.209-.793v4.914a25.136,25.136,0,0,1,3.081.949A4.829,4.829,0,0,1,13.91-8.047,4.359,4.359,0,0,1,14.742-5.226ZM5.174-13.234a1.907,1.907,0,0,0,.52,1.391,3.785,3.785,0,0,0,1.508.871v-4.5a2.439,2.439,0,0,0-1.482.7A2.129,2.129,0,0,0,5.174-13.234ZM8.866-2.756a2.645,2.645,0,0,0,1.547-.806,2.181,2.181,0,0,0,.559-1.508,1.815,1.815,0,0,0-.546-1.378,4.132,4.132,0,0,0-1.56-.858Z" transform="translate(1085.439 714)" fill="#3c3b3c"/>
  </g>
</svg>
